          =!HD DESI ROCKER RELEASES!=/=!DK GROUP HD BLURAY RELEAESEES!=

===================================================================================

Underworld:Rise of the Lycans(2009)Bluray Rip In[Hindi-Eng-Tamil-Telgu]6CH.AC3 By !!!dip
===================================================================================

Storyline:

The prequel story traces the origins of the centuries-old blood feud between the aristocratic vampires and their onetime slaves, the Lycans. In the Dark Ages, a young Lycan named Lucian emerges as a powerful leader who rallies the werewolves to rise up against Viktor, the cruel vampire king who has enslaved them. Lucian is joined by his secret lover, Sonja, in his battle against the Vampire army and his struggle for Lycan freedom.

Cast:

Michael Sheen.......... Lucian
Bill Nighy............. Viktor
Rhona Mitra............ Sonja
Steven Mackintosh...... Tannis
Kevin Grevioux......... Raze
David Aston............ Coloman
Geraldine Brophy....... Nobleman's Wife
Leighton Cardno........ Fearful Lycan
Alex Carroll........... Young Lucian (as Alexander Carroll)
Elizabeth Hawthorne.... Orsova
Jason Hood............. Death Dealer
Mark Mitchinson........ Nobleman
Tania Nolan............ Luka
Craig Parker........... Sabas

Michael Sheen.......... Lucian
Bill Nighy............. Viktor
Rhona Mitra............ Sonja
Steven Mackintosh...... Tannis
Kevin Grevioux......... Raze
David Aston............ Coloman
Geraldine Brophy....... Nobleman's Wife
Leighton Cardno........ Fearful Lycan
Alex Carroll........... Young Lucian (as Alexander Carroll)
Elizabeth Hawthorne.... Orsova
Jason Hood............. Death Dealer
Mark Mitchinson........ Nobleman
Tania Nolan............ Luka
Craig Parker........... Sabas


Directors   : Patrick Tatopoulos
Writers     : Danny McBride (screenplay), Dirk Blackman (screenplay)
Format      : Color, Dubbed, Subtitled, Widescreen
Language    :[Hindi-Eng-Tamil-Telgu]6CH.AC3
Release Date:23 January 2009
Run Time    : 1h:28m:42s
Color       :Color
Filming Locations:Auckland, New Zealand
SUBTITLE   :ENGLISH

Video Specifications:

Format: H.264/MPEG-4 AVC
Bitrate:448 kb/ps
Framerate:23.976 FPS

Release Title/Year/Language...:Underworld - Rise of the Lycans (2009) Bluray Rip In [Hindi-Eng-Tamil-Telgu] 6CH.AC3 By !!!dip
Genre: Action | Fantasy | Thriller  
Source: Bluray

ID: 1
Format: MPEG-4 Visual
Format profile: Advanced Simple@L5
Format settings, BVOP: Yes
Format settings, QPel: Yes
Format settings, GMC : No warppoints
Format settings, Matrix: Default (H.263)
Codec ID: XVID
Codec ID/Hint: XviD
Duration:  1h:28m:42s
Bit rate: 1 955 Kbps
Width   : 1 280 pixels
Height  : 528 pixels
Display aspect ratio: 2.40:1
Frame rate : 25.000 fps
Original frame rate : 23.976 fps
Color space: YUV
Chroma subsampling: 4:2:0
Bit depth : 8 bits
Scan type: Progressive
Compression mode: Lossy
Bits/(Pixel*Frame): 0.116
Stream size: 1.21 GiB (58%)
Resolution: 1280 x 528 pixels
Team: DK Group HD Bluray Releases/HD DESI ROCKER RELEAESEES


Audio Specifications:


Audio #1
ID                               : 2
Format                           : AC-3
Format/Info                      : Audio Coding 3
Mode extension                   : CM (complete main)
Muxing mode                      : Header stripping
Codec ID                         : A_AC3
Duration                         : 1h 28mn
Bit rate mode                    : Constant
Bit rate                         : 384 Kbps
Channel(s)                       : 6 channels
Channel positions                : Front: L C R, Side: L R, LFE
Sampling rate                    : 48.0 KHz
Bit depth                        : 16 bits
Compression mode                 : Lossy
Stream size                      : 244 MiB (11%)
Title                            : !!!dip
Language                         : English

Audio #2
ID                               : 3
Format                           : AC-3
Format/Info                      : Audio Coding 3
Mode extension                   : CM (complete main)
Muxing mode                      : Header stripping
Codec ID                         : A_AC3
Duration                         : 1h 28mn
Bit rate mode                    : Constant
Bit rate                         : 384 Kbps
Channel(s)                       : 6 channels
Channel positions                : Front: L C R, Side: L R, LFE
Sampling rate                    : 48.0 KHz
Bit depth                        : 16 bits
Compression mode                 : Lossy
Stream size                      : 244 MiB (11%)
Title                            : !!!dip
Language                         : Hindi

Audio #3
ID                               : 4
Format                           : AC-3
Format/Info                      : Audio Coding 3
Mode extension                   : CM (complete main)
Muxing mode                      : Header stripping
Codec ID                         : A_AC3
Duration                         : 1h 28mn
Bit rate mode                    : Constant
Bit rate                         : 384 Kbps
Channel(s)                       : 6 channels
Channel positions                : Front: L C R, Side: L R, LFE
Sampling rate                    : 48.0 KHz
Bit depth                        : 16 bits
Compression mode                 : Lossy
Stream size                      : 244 MiB (11%)
Title                            : !!!dip
Language                         : Tamil

Audio #4
ID                               : 5
Format                           : AC-3
Format/Info                      : Audio Coding 3
Format profile                   : Dolby Digital
Mode extension                   : CM (complete main)
Muxing mode                      : Header stripping
Codec ID                         : A_AC3
Duration                         : 1h 28mn
Bit rate mode                    : Constant
Bit rate                         : 192 Kbps
Channel(s)                       : 2 channels
Channel positions                : Front: L R
Sampling rate                    : 48.0 KHz
Bit depth                        : 16 bits
Compression mode                 : Lossy
Stream size                      : 122 MiB (6%)
Title                            : !!!dip
Language                         : Telugu


SAMPLE IMAGE:
 
http://www.pix2links.com/images/81464740289190575048.jpg
 
http://www.pix2links.com/images/94999490120597664483.jpg
 
http://www.pix2links.com/images/43234519589725650186.jpg
 
http://www.pix2links.com/images/67536960599140001796.jpg
 
http://www.pix2links.com/images/25154366531326126273.jpg

SAMPLE VIDEO INCLUDED:
 